<svg width="160" height="46" viewBox="0 0 160 46" fill="none" xmlns="http://www.w3.org/2000/svg">
<path d="M5.25062 0.000640857H0V24H5.25062V0.000640857Z" fill="#E8590C"/>
<path d="M8.46611 0H13.7167V8.69924C17.198 3.98045 23.0036 0 32.6842 0V5.15422C13.6354 5.15422 13.7575 23.9994 13.7575 23.9994H8.46611V0Z" fill="#E8590C"/>
<path d="M16.1994 23.9991C16.1994 23.9991 16.3623 8.01296 32.684 8.01296V13.1672C20.5953 13.1672 21.4501 23.9991 21.4501 23.9991H16.1994Z" fill="#E8590C"/>
<path d="M29.2244 23.9992C31.1127 23.9992 32.6434 22.4848 32.6434 20.6168C32.6434 18.7487 31.1127 17.2343 29.2244 17.2343C27.3361 17.2343 25.8054 18.7487 25.8054 20.6168C25.8054 22.4848 27.3361 23.9992 29.2244 23.9992Z" fill="#E8590C"/>
<path d="M37.9137 23.9996H55.7106V19.624H43.5338V3.85201e-05H37.9137V23.9996Z" fill="white"/>
<path d="M70.2048 23.9996C77.837 23.9996 83.4917 18.9278 83.4917 11.9998C83.4917 5.07176 77.837 3.85201e-05 70.2048 3.85201e-05C62.5379 3.85201e-05 56.9178 5.10491 56.9178 11.9998C56.9178 18.8947 62.5379 23.9996 70.2048 23.9996ZM70.2048 19.4251C65.8683 19.4251 62.6072 16.4086 62.6072 11.9998C62.6072 7.59105 65.8683 4.57453 70.2048 4.57453C74.5412 4.57453 77.8023 7.59105 77.8023 11.9998C77.8023 16.4086 74.5412 19.4251 70.2048 19.4251Z" fill="white"/>
<path d="M104.125 18.4306C102.702 19.1599 101.28 19.4251 99.7535 19.4251C95.1048 19.4251 91.8785 16.3423 91.8785 11.9998C91.8785 7.59105 95.1048 4.57453 99.8229 4.57453C102.286 4.57453 104.333 5.40325 106.102 7.19327L109.71 4.01101C107.351 1.39228 103.812 3.85201e-05 99.5454 3.85201e-05C91.8091 3.85201e-05 86.189 5.00546 86.189 11.9998C86.189 18.9941 91.8091 23.9996 99.4413 23.9996C102.91 23.9996 106.588 22.972 109.259 21.0493V11.6352H104.125V18.4306Z" fill="white"/>
<path d="M120.257 19.5425V13.9884H131.918V9.66844H120.257V4.4571H133.461V3.85201e-05H114.48V23.9996H133.927V19.5425H120.257Z" fill="white"/>
<path d="M144.329 19.5425V13.9884H155.991V9.66844H144.329V4.4571H157.534V3.85201e-05H138.552V23.9996H158V19.5425H144.329Z" fill="white"/>
<path d="M4.28328 38.964C4.28328 39.448 4.22328 39.884 4.10328 40.272C3.98728 40.656 3.81128 40.984 3.57528 41.256C3.34328 41.524 3.05328 41.732 2.70528 41.88C2.36128 42.024 1.96128 42.096 1.50528 42.096C1.29728 42.096 1.09128 42.082 0.887281 42.054C0.683281 42.03 0.471281 41.99 0.251281 41.934L0.323281 41.094C0.335281 41.014 0.365281 40.95 0.413281 40.902C0.465281 40.854 0.539281 40.83 0.635281 40.83C0.707281 40.83 0.799281 40.846 0.911281 40.878C1.02728 40.906 1.17728 40.92 1.36128 40.92C1.60528 40.92 1.82128 40.884 2.00928 40.812C2.20128 40.74 2.36128 40.628 2.48928 40.476C2.62128 40.32 2.71928 40.122 2.78328 39.882C2.85128 39.638 2.88528 39.344 2.88528 39V33.36H4.28328V38.964ZM9.82344 38.25C9.82344 38.034 9.79144 37.834 9.72744 37.65C9.66744 37.462 9.57744 37.3 9.45744 37.164C9.33744 37.024 9.18744 36.916 9.00744 36.84C8.83144 36.76 8.62744 36.72 8.39544 36.72C7.92744 36.72 7.55944 36.854 7.29144 37.122C7.02344 37.39 6.85344 37.766 6.78144 38.25H9.82344ZM6.74544 39.042C6.76144 39.39 6.81544 39.692 6.90744 39.948C6.99944 40.2 7.12144 40.41 7.27344 40.578C7.42944 40.746 7.61344 40.872 7.82544 40.956C8.04144 41.036 8.28144 41.076 8.54544 41.076C8.79744 41.076 9.01544 41.048 9.19944 40.992C9.38344 40.932 9.54344 40.868 9.67944 40.8C9.81544 40.728 9.93144 40.664 10.0274 40.608C10.1234 40.548 10.2114 40.518 10.2914 40.518C10.3954 40.518 10.4754 40.558 10.5314 40.638L10.8974 41.112C10.7454 41.292 10.5734 41.444 10.3814 41.568C10.1894 41.692 9.98544 41.794 9.76944 41.874C9.55344 41.95 9.33144 42.004 9.10344 42.036C8.87544 42.072 8.65344 42.09 8.43744 42.09C8.01344 42.09 7.61944 42.02 7.25544 41.88C6.89544 41.736 6.58144 41.526 6.31344 41.25C6.04944 40.974 5.84144 40.632 5.68944 40.224C5.54144 39.816 5.46744 39.346 5.46744 38.814C5.46744 38.39 5.53344 37.994 5.66544 37.626C5.80144 37.258 5.99344 36.938 6.24144 36.666C6.49344 36.394 6.79744 36.18 7.15344 36.024C7.51344 35.864 7.91944 35.784 8.37144 35.784C8.74744 35.784 9.09544 35.846 9.41544 35.97C9.73544 36.09 10.0114 36.268 10.2434 36.504C10.4754 36.74 10.6554 37.03 10.7834 37.374C10.9154 37.714 10.9814 38.102 10.9814 38.538C10.9814 38.738 10.9594 38.872 10.9154 38.94C10.8714 39.008 10.7914 39.042 10.6754 39.042H6.74544ZM12.1844 42V35.88H12.9644C13.1404 35.88 13.2524 35.962 13.3004 36.126L13.3844 36.66C13.4964 36.532 13.6124 36.416 13.7324 36.312C13.8524 36.204 13.9804 36.112 14.1164 36.036C14.2564 35.956 14.4044 35.894 14.5604 35.85C14.7204 35.806 14.8924 35.784 15.0764 35.784C15.2724 35.784 15.4524 35.812 15.6164 35.868C15.7804 35.924 15.9244 36.004 16.0484 36.108C16.1764 36.212 16.2864 36.338 16.3784 36.486C16.4704 36.634 16.5464 36.8 16.6064 36.984C16.6984 36.772 16.8144 36.59 16.9544 36.438C17.0944 36.286 17.2504 36.162 17.4224 36.066C17.5944 35.97 17.7764 35.9 17.9684 35.856C18.1644 35.808 18.3624 35.784 18.5624 35.784C18.8904 35.784 19.1824 35.836 19.4384 35.94C19.6984 36.044 19.9164 36.196 20.0924 36.396C20.2724 36.592 20.4084 36.834 20.5004 37.122C20.5924 37.41 20.6384 37.738 20.6384 38.106V42H19.3484V38.106C19.3484 37.674 19.2544 37.35 19.0664 37.134C18.8824 36.914 18.6084 36.804 18.2444 36.804C18.0804 36.804 17.9264 36.832 17.7824 36.888C17.6384 36.944 17.5124 37.026 17.4044 37.134C17.2964 37.242 17.2104 37.378 17.1464 37.542C17.0864 37.702 17.0564 37.89 17.0564 38.106V42H15.7664V38.106C15.7664 37.658 15.6764 37.33 15.4964 37.122C15.3164 36.91 15.0524 36.804 14.7044 36.804C14.4644 36.804 14.2424 36.866 14.0384 36.99C13.8344 37.11 13.6464 37.276 13.4744 37.488V42H12.1844ZM23.4354 40.464C23.6154 40.696 23.8114 40.86 24.0234 40.956C24.2394 41.048 24.4734 41.094 24.7254 41.094C25.2334 41.094 25.6294 40.91 25.9134 40.542C26.1974 40.174 26.3394 39.604 26.3394 38.832C26.3394 38.128 26.2154 37.614 25.9674 37.29C25.7234 36.966 25.3734 36.804 24.9174 36.804C24.6014 36.804 24.3254 36.876 24.0894 37.02C23.8574 37.16 23.6394 37.362 23.4354 37.626V40.464ZM23.4354 36.69C23.6874 36.414 23.9694 36.194 24.2814 36.03C24.5934 35.866 24.9494 35.784 25.3494 35.784C25.7054 35.784 26.0254 35.854 26.3094 35.994C26.5974 36.13 26.8414 36.328 27.0414 36.588C27.2414 36.848 27.3954 37.164 27.5034 37.536C27.6114 37.904 27.6654 38.32 27.6654 38.784C27.6654 39.28 27.6034 39.732 27.4794 40.14C27.3594 40.544 27.1854 40.892 26.9574 41.184C26.7294 41.472 26.4534 41.696 26.1294 41.856C25.8054 42.012 25.4434 42.09 25.0434 42.09C24.8474 42.09 24.6694 42.07 24.5094 42.03C24.3494 41.994 24.2014 41.94 24.0654 41.868C23.9294 41.796 23.8034 41.71 23.6874 41.61C23.5754 41.51 23.4674 41.396 23.3634 41.268L23.3094 41.742C23.2894 41.834 23.2534 41.9 23.2014 41.94C23.1494 41.98 23.0774 42 22.9854 42H22.1454V33.12H23.4354V36.69ZM32.1888 39.324C31.7288 39.34 31.3408 39.378 31.0248 39.438C30.7088 39.494 30.4528 39.568 30.2568 39.66C30.0608 39.748 29.9188 39.854 29.8308 39.978C29.7468 40.102 29.7048 40.238 29.7048 40.386C29.7048 40.53 29.7268 40.654 29.7708 40.758C29.8188 40.858 29.8828 40.942 29.9628 41.01C30.0468 41.074 30.1428 41.122 30.2508 41.154C30.3628 41.182 30.4848 41.196 30.6168 41.196C30.9528 41.196 31.2408 41.134 31.4808 41.01C31.7248 40.882 31.9608 40.698 32.1888 40.458V39.324ZM28.7688 36.732C29.4608 36.088 30.2848 35.766 31.2408 35.766C31.5928 35.766 31.9048 35.824 32.1768 35.94C32.4528 36.052 32.6828 36.212 32.8668 36.42C33.0548 36.628 33.1968 36.876 33.2928 37.164C33.3928 37.448 33.4428 37.764 33.4428 38.112V42H32.8668C32.7428 42 32.6488 41.982 32.5848 41.946C32.5208 41.906 32.4668 41.828 32.4228 41.712L32.2968 41.214C32.1408 41.354 31.9868 41.48 31.8348 41.592C31.6828 41.7 31.5248 41.792 31.3608 41.868C31.2008 41.944 31.0268 42 30.8388 42.036C30.6548 42.076 30.4508 42.096 30.2268 42.096C29.9788 42.096 29.7468 42.062 29.5308 41.994C29.3188 41.926 29.1348 41.824 28.9788 41.688C28.8228 41.548 28.6988 41.376 28.6068 41.172C28.5188 40.968 28.4748 40.728 28.4748 40.452C28.4748 40.216 28.5368 39.986 28.6608 39.762C28.7888 39.538 28.9968 39.338 29.2848 39.162C29.5768 38.982 29.9588 38.834 30.4308 38.718C30.9068 38.602 31.4928 38.536 32.1888 38.52V38.112C32.1888 37.672 32.0948 37.344 31.9068 37.128C31.7188 36.912 31.4428 36.804 31.0788 36.804C30.8308 36.804 30.6228 36.836 30.4548 36.9C30.2868 36.96 30.1408 37.026 30.0168 37.098C29.8928 37.17 29.7828 37.238 29.6868 37.302C29.5908 37.362 29.4888 37.392 29.3808 37.392C29.2928 37.392 29.2168 37.37 29.1528 37.326C29.0928 37.278 29.0428 37.22 29.0028 37.152L28.7688 36.732ZM36.8339 42.096C36.3259 42.096 35.9339 41.954 35.6579 41.67C35.3859 41.382 35.2499 40.978 35.2499 40.458V36.894H34.5779C34.5059 36.894 34.4439 36.872 34.3919 36.828C34.3399 36.78 34.3139 36.71 34.3139 36.618V36.096L35.3039 35.952L35.5859 34.182C35.6059 34.114 35.6399 34.06 35.6879 34.02C35.7359 33.976 35.7999 33.954 35.8799 33.954H36.5399V35.964H38.2379V36.894H36.5399V40.368C36.5399 40.588 36.5939 40.756 36.7019 40.872C36.8099 40.988 36.9539 41.046 37.1339 41.046C37.2339 41.046 37.3199 41.034 37.3919 41.01C37.4639 40.982 37.5259 40.954 37.5779 40.926C37.6299 40.894 37.6739 40.866 37.7099 40.842C37.7499 40.814 37.7879 40.8 37.8239 40.8C37.8959 40.8 37.9539 40.84 37.9979 40.92L38.3819 41.55C38.1819 41.726 37.9459 41.862 37.6739 41.958C37.4019 42.05 37.1219 42.096 36.8339 42.096ZM42.5248 39.324C42.0648 39.34 41.6768 39.378 41.3608 39.438C41.0448 39.494 40.7888 39.568 40.5928 39.66C40.3968 39.748 40.2548 39.854 40.1668 39.978C40.0828 40.102 40.0408 40.238 40.0408 40.386C40.0408 40.53 40.0628 40.654 40.1068 40.758C40.1548 40.858 40.2188 40.942 40.2988 41.01C40.3828 41.074 40.4788 41.122 40.5868 41.154C40.6988 41.182 40.8208 41.196 40.9528 41.196C41.2888 41.196 41.5768 41.134 41.8168 41.01C42.0608 40.882 42.2968 40.698 42.5248 40.458V39.324ZM39.1048 36.732C39.7968 36.088 40.6208 35.766 41.5768 35.766C41.9288 35.766 42.2408 35.824 42.5128 35.94C42.7888 36.052 43.0188 36.212 43.2028 36.42C43.3908 36.628 43.5328 36.876 43.6288 37.164C43.7288 37.448 43.7788 37.764 43.7788 38.112V42H43.2028C43.0788 42 42.9848 41.982 42.9208 41.946C42.8568 41.906 42.8028 41.828 42.7588 41.712L42.6328 41.214C42.4768 41.354 42.3228 41.48 42.1708 41.592C42.0188 41.7 41.8608 41.792 41.6968 41.868C41.5368 41.944 41.3628 42 41.1748 42.036C40.9908 42.076 40.7868 42.096 40.5628 42.096C40.3148 42.096 40.0828 42.062 39.8668 41.994C39.6548 41.926 39.4708 41.824 39.3148 41.688C39.1588 41.548 39.0348 41.376 38.9428 41.172C38.8548 40.968 38.8108 40.728 38.8108 40.452C38.8108 40.216 38.8728 39.986 38.9968 39.762C39.1248 39.538 39.3328 39.338 39.6208 39.162C39.9128 38.982 40.2948 38.834 40.7668 38.718C41.2428 38.602 41.8288 38.536 42.5248 38.52V38.112C42.5248 37.672 42.4308 37.344 42.2428 37.128C42.0548 36.912 41.7788 36.804 41.4148 36.804C41.1668 36.804 40.9588 36.836 40.7908 36.9C40.6228 36.96 40.4768 37.026 40.3528 37.098C40.2288 37.17 40.1188 37.238 40.0228 37.302C39.9268 37.362 39.8248 37.392 39.7168 37.392C39.6288 37.392 39.5528 37.37 39.4888 37.326C39.4288 37.278 39.3788 37.22 39.3388 37.152L39.1048 36.732ZM46.4959 36.69C46.6279 36.554 46.7639 36.432 46.9039 36.324C47.0479 36.212 47.1999 36.116 47.3599 36.036C47.5199 35.956 47.6899 35.894 47.8699 35.85C48.0499 35.806 48.2459 35.784 48.4579 35.784C48.7939 35.784 49.0879 35.84 49.3399 35.952C49.5959 36.064 49.8099 36.222 49.9819 36.426C50.1579 36.63 50.2899 36.876 50.3779 37.164C50.4659 37.448 50.5099 37.762 50.5099 38.106V42H49.2259V38.106C49.2259 37.694 49.1299 37.374 48.9379 37.146C48.7499 36.918 48.4619 36.804 48.0739 36.804C47.7859 36.804 47.5179 36.87 47.2699 37.002C47.0259 37.134 46.7959 37.314 46.5799 37.542V42H45.2899V35.88H46.0699C46.2459 35.88 46.3579 35.962 46.4059 36.126L46.4959 36.69ZM62.8288 37.68C62.8288 38.32 62.7248 38.906 62.5168 39.438C62.3088 39.966 62.0148 40.42 61.6348 40.8C61.2588 41.18 60.8048 41.476 60.2728 41.688C59.7448 41.896 59.1568 42 58.5088 42H55.2448V33.36H58.5088C59.1568 33.36 59.7448 33.466 60.2728 33.678C60.8048 33.886 61.2588 34.18 61.6348 34.56C62.0148 34.94 62.3088 35.396 62.5168 35.928C62.7248 36.456 62.8288 37.04 62.8288 37.68ZM61.3948 37.68C61.3948 37.184 61.3268 36.738 61.1908 36.342C61.0588 35.946 60.8668 35.612 60.6148 35.34C60.3668 35.068 60.0648 34.86 59.7088 34.716C59.3528 34.568 58.9528 34.494 58.5088 34.494H56.6548V40.866H58.5088C58.9528 40.866 59.3528 40.794 59.7088 40.65C60.0648 40.506 60.3668 40.298 60.6148 40.026C60.8668 39.75 61.0588 39.416 61.1908 39.024C61.3268 38.628 61.3948 38.18 61.3948 37.68ZM65.3722 35.88V42H64.0822V35.88H65.3722ZM65.5882 34.032C65.5882 34.148 65.5642 34.258 65.5162 34.362C65.4722 34.466 65.4102 34.558 65.3302 34.638C65.2502 34.714 65.1562 34.776 65.0482 34.824C64.9442 34.868 64.8322 34.89 64.7122 34.89C64.5962 34.89 64.4862 34.868 64.3822 34.824C64.2822 34.776 64.1942 34.714 64.1182 34.638C64.0422 34.558 63.9802 34.466 63.9322 34.362C63.8882 34.258 63.8662 34.148 63.8662 34.032C63.8662 33.912 63.8882 33.8 63.9322 33.696C63.9802 33.592 64.0422 33.502 64.1182 33.426C64.1942 33.346 64.2822 33.284 64.3822 33.24C64.4862 33.192 64.5962 33.168 64.7122 33.168C64.8322 33.168 64.9442 33.192 65.0482 33.24C65.1562 33.284 65.2502 33.346 65.3302 33.426C65.4102 33.502 65.4722 33.592 65.5162 33.696C65.5642 33.8 65.5882 33.912 65.5882 34.032ZM69.177 38.886C69.577 38.886 69.877 38.784 70.077 38.58C70.277 38.376 70.377 38.11 70.377 37.782C70.377 37.446 70.277 37.18 70.077 36.984C69.877 36.788 69.577 36.69 69.177 36.69C68.781 36.69 68.481 36.788 68.277 36.984C68.077 37.18 67.977 37.446 67.977 37.782C67.977 37.942 68.003 38.09 68.055 38.226C68.107 38.362 68.183 38.48 68.283 38.58C68.383 38.676 68.507 38.752 68.655 38.808C68.807 38.86 68.981 38.886 69.177 38.886ZM70.971 42.3C70.971 42.164 70.931 42.056 70.851 41.976C70.775 41.892 70.671 41.828 70.539 41.784C70.407 41.736 70.253 41.702 70.077 41.682C69.901 41.658 69.713 41.642 69.513 41.634C69.317 41.622 69.115 41.612 68.907 41.604C68.703 41.592 68.505 41.572 68.313 41.544C68.121 41.644 67.963 41.764 67.839 41.904C67.719 42.044 67.659 42.206 67.659 42.39C67.659 42.51 67.689 42.622 67.749 42.726C67.813 42.83 67.909 42.92 68.037 42.996C68.169 43.072 68.335 43.132 68.535 43.176C68.739 43.22 68.983 43.242 69.267 43.242C69.835 43.242 70.261 43.154 70.545 42.978C70.829 42.802 70.971 42.576 70.971 42.3ZM72.267 36.102V36.582C72.267 36.742 72.171 36.84 71.979 36.876L71.367 36.978C71.471 37.21 71.523 37.468 71.523 37.752C71.523 38.052 71.463 38.324 71.343 38.568C71.227 38.812 71.065 39.02 70.857 39.192C70.649 39.364 70.401 39.496 70.113 39.588C69.825 39.68 69.513 39.726 69.177 39.726C69.049 39.726 68.923 39.72 68.799 39.708C68.679 39.692 68.561 39.672 68.445 39.648C68.329 39.716 68.243 39.788 68.187 39.864C68.131 39.94 68.103 40.018 68.103 40.098C68.103 40.23 68.161 40.328 68.277 40.392C68.393 40.456 68.545 40.502 68.733 40.53C68.925 40.558 69.143 40.576 69.387 40.584C69.631 40.592 69.879 40.606 70.131 40.626C70.383 40.646 70.631 40.68 70.875 40.728C71.119 40.772 71.335 40.848 71.523 40.956C71.715 41.06 71.869 41.202 71.985 41.382C72.101 41.562 72.159 41.796 72.159 42.084C72.159 42.348 72.093 42.606 71.961 42.858C71.829 43.11 71.637 43.334 71.385 43.53C71.137 43.726 70.833 43.882 70.473 43.998C70.113 44.118 69.703 44.178 69.243 44.178C68.787 44.178 68.389 44.134 68.049 44.046C67.713 43.958 67.431 43.838 67.203 43.686C66.979 43.538 66.811 43.366 66.699 43.17C66.591 42.974 66.537 42.77 66.537 42.558C66.537 42.27 66.627 42.024 66.807 41.82C66.991 41.616 67.239 41.456 67.551 41.34C67.383 41.26 67.247 41.15 67.143 41.01C67.043 40.87 66.993 40.686 66.993 40.458C66.993 40.278 67.059 40.09 67.191 39.894C67.323 39.698 67.521 39.532 67.785 39.396C67.481 39.228 67.241 39.006 67.065 38.73C66.889 38.45 66.801 38.124 66.801 37.752C66.801 37.448 66.859 37.174 66.975 36.93C67.095 36.686 67.261 36.478 67.473 36.306C67.685 36.134 67.935 36.002 68.223 35.91C68.515 35.818 68.833 35.772 69.177 35.772C69.705 35.772 70.165 35.882 70.557 36.102H72.267ZM74.63 35.88V42H73.34V35.88H74.63ZM74.846 34.032C74.846 34.148 74.822 34.258 74.774 34.362C74.73 34.466 74.668 34.558 74.588 34.638C74.508 34.714 74.414 34.776 74.306 34.824C74.202 34.868 74.09 34.89 73.97 34.89C73.854 34.89 73.744 34.868 73.64 34.824C73.54 34.776 73.452 34.714 73.376 34.638C73.3 34.558 73.238 34.466 73.19 34.362C73.146 34.258 73.124 34.148 73.124 34.032C73.124 33.912 73.146 33.8 73.19 33.696C73.238 33.592 73.3 33.502 73.376 33.426C73.452 33.346 73.54 33.284 73.64 33.24C73.744 33.192 73.854 33.168 73.97 33.168C74.09 33.168 74.202 33.192 74.306 33.24C74.414 33.284 74.508 33.346 74.588 33.426C74.668 33.502 74.73 33.592 74.774 33.696C74.822 33.8 74.846 33.912 74.846 34.032ZM78.2128 42.096C77.7048 42.096 77.3128 41.954 77.0368 41.67C76.7648 41.382 76.6288 40.978 76.6288 40.458V36.894H75.9568C75.8848 36.894 75.8228 36.872 75.7708 36.828C75.7188 36.78 75.6928 36.71 75.6928 36.618V36.096L76.6828 35.952L76.9648 34.182C76.9848 34.114 77.0188 34.06 77.0668 34.02C77.1148 33.976 77.1788 33.954 77.2588 33.954H77.9188V35.964H79.6168V36.894H77.9188V40.368C77.9188 40.588 77.9728 40.756 78.0808 40.872C78.1888 40.988 78.3328 41.046 78.5128 41.046C78.6128 41.046 78.6988 41.034 78.7708 41.01C78.8428 40.982 78.9048 40.954 78.9568 40.926C79.0088 40.894 79.0528 40.866 79.0888 40.842C79.1288 40.814 79.1668 40.8 79.2028 40.8C79.2748 40.8 79.3328 40.84 79.3768 40.92L79.7608 41.55C79.5608 41.726 79.3248 41.862 79.0528 41.958C78.7808 42.05 78.5008 42.096 78.2128 42.096ZM83.9037 39.324C83.4437 39.34 83.0557 39.378 82.7397 39.438C82.4237 39.494 82.1677 39.568 81.9717 39.66C81.7757 39.748 81.6337 39.854 81.5457 39.978C81.4617 40.102 81.4197 40.238 81.4197 40.386C81.4197 40.53 81.4417 40.654 81.4857 40.758C81.5337 40.858 81.5977 40.942 81.6777 41.01C81.7617 41.074 81.8577 41.122 81.9657 41.154C82.0777 41.182 82.1997 41.196 82.3317 41.196C82.6677 41.196 82.9557 41.134 83.1957 41.01C83.4397 40.882 83.6757 40.698 83.9037 40.458V39.324ZM80.4837 36.732C81.1757 36.088 81.9997 35.766 82.9557 35.766C83.3077 35.766 83.6197 35.824 83.8917 35.94C84.1677 36.052 84.3977 36.212 84.5817 36.42C84.7697 36.628 84.9117 36.876 85.0077 37.164C85.1077 37.448 85.1577 37.764 85.1577 38.112V42H84.5817C84.4577 42 84.3637 41.982 84.2997 41.946C84.2357 41.906 84.1817 41.828 84.1377 41.712L84.0117 41.214C83.8557 41.354 83.7017 41.48 83.5497 41.592C83.3977 41.7 83.2397 41.792 83.0757 41.868C82.9157 41.944 82.7417 42 82.5537 42.036C82.3697 42.076 82.1657 42.096 81.9417 42.096C81.6937 42.096 81.4617 42.062 81.2457 41.994C81.0337 41.926 80.8497 41.824 80.6937 41.688C80.5377 41.548 80.4137 41.376 80.3217 41.172C80.2337 40.968 80.1897 40.728 80.1897 40.452C80.1897 40.216 80.2517 39.986 80.3757 39.762C80.5037 39.538 80.7117 39.338 80.9997 39.162C81.2917 38.982 81.6737 38.834 82.1457 38.718C82.6217 38.602 83.2077 38.536 83.9037 38.52V38.112C83.9037 37.672 83.8097 37.344 83.6217 37.128C83.4337 36.912 83.1577 36.804 82.7937 36.804C82.5457 36.804 82.3377 36.836 82.1697 36.9C82.0017 36.96 81.8557 37.026 81.7317 37.098C81.6077 37.17 81.4977 37.238 81.4017 37.302C81.3057 37.362 81.2037 37.392 81.0957 37.392C81.0077 37.392 80.9317 37.37 80.8677 37.326C80.8077 37.278 80.7577 37.22 80.7177 37.152L80.4837 36.732ZM87.9828 33.12V42H86.6928V33.12H87.9828ZM95.3113 37.5C95.6313 37.5 95.9113 37.462 96.1513 37.386C96.3913 37.306 96.5913 37.196 96.7513 37.056C96.9113 36.916 97.0313 36.75 97.1113 36.558C97.1913 36.362 97.2313 36.146 97.2313 35.91C97.2313 35.438 97.0753 35.078 96.7633 34.83C96.4513 34.582 95.9793 34.458 95.3473 34.458H94.2073V37.5H95.3113ZM99.3793 42H98.1253C97.8773 42 97.6973 41.904 97.5853 41.712L95.5693 38.802C95.5013 38.702 95.4273 38.63 95.3473 38.586C95.2673 38.542 95.1473 38.52 94.9873 38.52H94.2073V42H92.8033V33.36H95.3473C95.9153 33.36 96.4033 33.418 96.8113 33.534C97.2233 33.65 97.5613 33.816 97.8253 34.032C98.0893 34.244 98.2833 34.5 98.4073 34.8C98.5353 35.1 98.5993 35.434 98.5993 35.802C98.5993 36.102 98.5533 36.382 98.4613 36.642C98.3733 36.902 98.2433 37.138 98.0713 37.35C97.9033 37.562 97.6953 37.746 97.4473 37.902C97.1993 38.058 96.9173 38.18 96.6013 38.268C96.7733 38.372 96.9213 38.518 97.0453 38.706L99.3793 42ZM103.357 39.324C102.897 39.34 102.509 39.378 102.193 39.438C101.877 39.494 101.621 39.568 101.425 39.66C101.229 39.748 101.087 39.854 100.999 39.978C100.915 40.102 100.873 40.238 100.873 40.386C100.873 40.53 100.895 40.654 100.939 40.758C100.987 40.858 101.051 40.942 101.131 41.01C101.215 41.074 101.311 41.122 101.419 41.154C101.531 41.182 101.653 41.196 101.785 41.196C102.121 41.196 102.409 41.134 102.649 41.01C102.893 40.882 103.129 40.698 103.357 40.458V39.324ZM99.9368 36.732C100.629 36.088 101.453 35.766 102.409 35.766C102.761 35.766 103.073 35.824 103.345 35.94C103.621 36.052 103.851 36.212 104.035 36.42C104.223 36.628 104.365 36.876 104.461 37.164C104.561 37.448 104.611 37.764 104.611 38.112V42H104.035C103.911 42 103.817 41.982 103.753 41.946C103.689 41.906 103.635 41.828 103.591 41.712L103.465 41.214C103.309 41.354 103.155 41.48 103.003 41.592C102.851 41.7 102.693 41.792 102.529 41.868C102.369 41.944 102.195 42 102.007 42.036C101.823 42.076 101.619 42.096 101.395 42.096C101.147 42.096 100.915 42.062 100.699 41.994C100.487 41.926 100.303 41.824 100.147 41.688C99.9908 41.548 99.8668 41.376 99.7748 41.172C99.6868 40.968 99.6428 40.728 99.6428 40.452C99.6428 40.216 99.7048 39.986 99.8288 39.762C99.9568 39.538 100.165 39.338 100.453 39.162C100.745 38.982 101.127 38.834 101.599 38.718C102.075 38.602 102.661 38.536 103.357 38.52V38.112C103.357 37.672 103.263 37.344 103.075 37.128C102.887 36.912 102.611 36.804 102.247 36.804C101.999 36.804 101.791 36.836 101.623 36.9C101.455 36.96 101.309 37.026 101.185 37.098C101.061 37.17 100.951 37.238 100.855 37.302C100.759 37.362 100.657 37.392 100.549 37.392C100.461 37.392 100.385 37.37 100.321 37.326C100.261 37.278 100.211 37.22 100.171 37.152L99.9368 36.732ZM107.328 36.69C107.46 36.554 107.596 36.432 107.736 36.324C107.88 36.212 108.032 36.116 108.192 36.036C108.352 35.956 108.522 35.894 108.702 35.85C108.882 35.806 109.078 35.784 109.29 35.784C109.626 35.784 109.92 35.84 110.172 35.952C110.428 36.064 110.642 36.222 110.814 36.426C110.99 36.63 111.122 36.876 111.21 37.164C111.298 37.448 111.342 37.762 111.342 38.106V42H110.058V38.106C110.058 37.694 109.962 37.374 109.77 37.146C109.582 36.918 109.294 36.804 108.906 36.804C108.618 36.804 108.35 36.87 108.102 37.002C107.858 37.134 107.628 37.314 107.412 37.542V42H106.122V35.88H106.902C107.078 35.88 107.19 35.962 107.238 36.126L107.328 36.69ZM114.728 42.096C114.22 42.096 113.828 41.954 113.552 41.67C113.28 41.382 113.144 40.978 113.144 40.458V36.894H112.472C112.4 36.894 112.338 36.872 112.286 36.828C112.234 36.78 112.208 36.71 112.208 36.618V36.096L113.198 35.952L113.48 34.182C113.5 34.114 113.534 34.06 113.582 34.02C113.63 33.976 113.694 33.954 113.774 33.954H114.434V35.964H116.132V36.894H114.434V40.368C114.434 40.588 114.488 40.756 114.596 40.872C114.704 40.988 114.848 41.046 115.028 41.046C115.128 41.046 115.214 41.034 115.286 41.01C115.358 40.982 115.42 40.954 115.472 40.926C115.524 40.894 115.568 40.866 115.604 40.842C115.644 40.814 115.682 40.8 115.718 40.8C115.79 40.8 115.848 40.84 115.892 40.92L116.276 41.55C116.076 41.726 115.84 41.862 115.568 41.958C115.296 42.05 115.016 42.096 114.728 42.096ZM120.419 39.324C119.959 39.34 119.571 39.378 119.255 39.438C118.939 39.494 118.683 39.568 118.487 39.66C118.291 39.748 118.149 39.854 118.061 39.978C117.977 40.102 117.935 40.238 117.935 40.386C117.935 40.53 117.957 40.654 118.001 40.758C118.049 40.858 118.113 40.942 118.193 41.01C118.277 41.074 118.373 41.122 118.481 41.154C118.593 41.182 118.715 41.196 118.847 41.196C119.183 41.196 119.471 41.134 119.711 41.01C119.955 40.882 120.191 40.698 120.419 40.458V39.324ZM116.999 36.732C117.691 36.088 118.515 35.766 119.471 35.766C119.823 35.766 120.135 35.824 120.407 35.94C120.683 36.052 120.913 36.212 121.097 36.42C121.285 36.628 121.427 36.876 121.523 37.164C121.623 37.448 121.673 37.764 121.673 38.112V42H121.097C120.973 42 120.879 41.982 120.815 41.946C120.751 41.906 120.697 41.828 120.653 41.712L120.527 41.214C120.371 41.354 120.217 41.48 120.065 41.592C119.913 41.7 119.755 41.792 119.591 41.868C119.431 41.944 119.257 42 119.069 42.036C118.885 42.076 118.681 42.096 118.457 42.096C118.209 42.096 117.977 42.062 117.761 41.994C117.549 41.926 117.365 41.824 117.209 41.688C117.053 41.548 116.929 41.376 116.837 41.172C116.749 40.968 116.705 40.728 116.705 40.452C116.705 40.216 116.767 39.986 116.891 39.762C117.019 39.538 117.227 39.338 117.515 39.162C117.807 38.982 118.189 38.834 118.661 38.718C119.137 38.602 119.723 38.536 120.419 38.52V38.112C120.419 37.672 120.325 37.344 120.137 37.128C119.949 36.912 119.673 36.804 119.309 36.804C119.061 36.804 118.853 36.836 118.685 36.9C118.517 36.96 118.371 37.026 118.247 37.098C118.123 37.17 118.013 37.238 117.917 37.302C117.821 37.362 117.719 37.392 117.611 37.392C117.523 37.392 117.447 37.37 117.383 37.326C117.323 37.278 117.273 37.22 117.233 37.152L116.999 36.732ZM124.528 35.88V42H123.238V35.88H124.528ZM124.744 34.032C124.744 34.148 124.72 34.258 124.672 34.362C124.628 34.466 124.566 34.558 124.486 34.638C124.406 34.714 124.312 34.776 124.204 34.824C124.1 34.868 123.988 34.89 123.868 34.89C123.752 34.89 123.642 34.868 123.538 34.824C123.438 34.776 123.35 34.714 123.274 34.638C123.198 34.558 123.136 34.466 123.088 34.362C123.044 34.258 123.022 34.148 123.022 34.032C123.022 33.912 123.044 33.8 123.088 33.696C123.136 33.592 123.198 33.502 123.274 33.426C123.35 33.346 123.438 33.284 123.538 33.24C123.642 33.192 123.752 33.168 123.868 33.168C123.988 33.168 124.1 33.192 124.204 33.24C124.312 33.284 124.406 33.346 124.486 33.426C124.566 33.502 124.628 33.592 124.672 33.696C124.72 33.8 124.744 33.912 124.744 34.032ZM132.066 37.764C132.378 37.764 132.652 37.724 132.888 37.644C133.128 37.564 133.326 37.452 133.482 37.308C133.642 37.16 133.762 36.982 133.842 36.774C133.922 36.566 133.962 36.334 133.962 36.078C133.962 35.826 133.922 35.6 133.842 35.4C133.766 35.2 133.65 35.03 133.494 34.89C133.338 34.75 133.14 34.644 132.9 34.572C132.664 34.496 132.386 34.458 132.066 34.458H130.782V37.764H132.066ZM132.066 33.36C132.63 33.36 133.118 33.426 133.53 33.558C133.946 33.69 134.288 33.876 134.556 34.116C134.828 34.352 135.03 34.638 135.162 34.974C135.294 35.306 135.36 35.674 135.36 36.078C135.36 36.49 135.29 36.868 135.15 37.212C135.01 37.552 134.802 37.846 134.526 38.094C134.25 38.338 133.906 38.53 133.494 38.67C133.086 38.806 132.61 38.874 132.066 38.874H130.782V42H129.378V33.36H132.066ZM139.544 39.324C139.084 39.34 138.696 39.378 138.38 39.438C138.064 39.494 137.808 39.568 137.612 39.66C137.416 39.748 137.274 39.854 137.186 39.978C137.102 40.102 137.06 40.238 137.06 40.386C137.06 40.53 137.082 40.654 137.126 40.758C137.174 40.858 137.238 40.942 137.318 41.01C137.402 41.074 137.498 41.122 137.606 41.154C137.718 41.182 137.84 41.196 137.972 41.196C138.308 41.196 138.596 41.134 138.836 41.01C139.08 40.882 139.316 40.698 139.544 40.458V39.324ZM136.124 36.732C136.816 36.088 137.64 35.766 138.596 35.766C138.948 35.766 139.26 35.824 139.532 35.94C139.808 36.052 140.038 36.212 140.222 36.42C140.41 36.628 140.552 36.876 140.648 37.164C140.748 37.448 140.798 37.764 140.798 38.112V42H140.222C140.098 42 140.004 41.982 139.94 41.946C139.876 41.906 139.822 41.828 139.778 41.712L139.652 41.214C139.496 41.354 139.342 41.48 139.19 41.592C139.038 41.7 138.88 41.792 138.716 41.868C138.556 41.944 138.382 42 138.194 42.036C138.01 42.076 137.806 42.096 137.582 42.096C137.334 42.096 137.102 42.062 136.886 41.994C136.674 41.926 136.49 41.824 136.334 41.688C136.178 41.548 136.054 41.376 135.962 41.172C135.874 40.968 135.83 40.728 135.83 40.452C135.83 40.216 135.892 39.986 136.016 39.762C136.144 39.538 136.352 39.338 136.64 39.162C136.932 38.982 137.314 38.834 137.786 38.718C138.262 38.602 138.848 38.536 139.544 38.52V38.112C139.544 37.672 139.45 37.344 139.262 37.128C139.074 36.912 138.798 36.804 138.434 36.804C138.186 36.804 137.978 36.836 137.81 36.9C137.642 36.96 137.496 37.026 137.372 37.098C137.248 37.17 137.138 37.238 137.042 37.302C136.946 37.362 136.844 37.392 136.736 37.392C136.648 37.392 136.572 37.37 136.508 37.326C136.448 37.278 136.398 37.22 136.358 37.152L136.124 36.732ZM145.963 36.99C145.931 37.046 145.895 37.086 145.855 37.11C145.815 37.134 145.765 37.146 145.705 37.146C145.637 37.146 145.563 37.126 145.483 37.086C145.403 37.042 145.309 36.994 145.201 36.942C145.093 36.89 144.965 36.844 144.817 36.804C144.673 36.76 144.503 36.738 144.307 36.738C144.147 36.738 144.001 36.758 143.869 36.798C143.741 36.834 143.631 36.888 143.539 36.96C143.451 37.028 143.383 37.11 143.335 37.206C143.287 37.298 143.263 37.398 143.263 37.506C143.263 37.65 143.307 37.77 143.395 37.866C143.483 37.962 143.599 38.046 143.743 38.118C143.887 38.186 144.051 38.248 144.235 38.304C144.419 38.36 144.607 38.42 144.799 38.484C144.991 38.548 145.179 38.622 145.363 38.706C145.547 38.79 145.711 38.894 145.855 39.018C145.999 39.138 146.115 39.286 146.203 39.462C146.291 39.634 146.335 39.844 146.335 40.092C146.335 40.38 146.283 40.646 146.179 40.89C146.075 41.134 145.923 41.346 145.723 41.526C145.523 41.706 145.273 41.846 144.973 41.946C144.677 42.046 144.337 42.096 143.953 42.096C143.741 42.096 143.535 42.076 143.335 42.036C143.139 42 142.951 41.95 142.771 41.886C142.595 41.818 142.429 41.738 142.273 41.646C142.121 41.554 141.985 41.454 141.865 41.346L142.165 40.854C142.201 40.794 142.245 40.748 142.297 40.716C142.353 40.68 142.421 40.662 142.501 40.662C142.585 40.662 142.667 40.69 142.747 40.746C142.831 40.798 142.927 40.856 143.035 40.92C143.147 40.984 143.281 41.044 143.437 41.1C143.593 41.152 143.787 41.178 144.019 41.178C144.211 41.178 144.377 41.156 144.517 41.112C144.657 41.064 144.773 41 144.865 40.92C144.957 40.84 145.025 40.75 145.069 40.65C145.113 40.546 145.135 40.436 145.135 40.32C145.135 40.164 145.091 40.036 145.003 39.936C144.915 39.836 144.797 39.75 144.649 39.678C144.505 39.606 144.339 39.542 144.151 39.486C143.967 39.43 143.779 39.37 143.587 39.306C143.395 39.242 143.205 39.168 143.017 39.084C142.833 39 142.667 38.894 142.519 38.766C142.375 38.634 142.259 38.476 142.171 38.292C142.083 38.104 142.039 37.876 142.039 37.608C142.039 37.364 142.087 37.132 142.183 36.912C142.283 36.692 142.427 36.498 142.615 36.33C142.807 36.162 143.041 36.03 143.317 35.934C143.597 35.834 143.919 35.784 144.283 35.784C144.695 35.784 145.069 35.85 145.405 35.982C145.741 36.114 146.023 36.294 146.251 36.522L145.963 36.99ZM150.194 35.784C150.646 35.784 151.054 35.858 151.418 36.006C151.786 36.154 152.098 36.364 152.354 36.636C152.614 36.908 152.814 37.238 152.954 37.626C153.094 38.014 153.164 38.45 153.164 38.934C153.164 39.418 153.094 39.854 152.954 40.242C152.814 40.63 152.614 40.962 152.354 41.238C152.098 41.51 151.786 41.72 151.418 41.868C151.054 42.016 150.646 42.09 150.194 42.09C149.738 42.09 149.326 42.016 148.958 41.868C148.594 41.72 148.282 41.51 148.022 41.238C147.762 40.962 147.562 40.63 147.422 40.242C147.282 39.854 147.212 39.418 147.212 38.934C147.212 38.45 147.282 38.014 147.422 37.626C147.562 37.238 147.762 36.908 148.022 36.636C148.282 36.364 148.594 36.154 148.958 36.006C149.326 35.858 149.738 35.784 150.194 35.784ZM150.194 41.082C150.746 41.082 151.156 40.898 151.424 40.53C151.696 40.158 151.832 39.628 151.832 38.94C151.832 38.252 151.696 37.722 151.424 37.35C151.156 36.974 150.746 36.786 150.194 36.786C149.634 36.786 149.218 36.974 148.946 37.35C148.674 37.722 148.538 38.252 148.538 38.94C148.538 39.628 148.674 40.158 148.946 40.53C149.218 40.898 149.634 41.082 150.194 41.082ZM155.693 33.12V38.268H155.969C156.057 38.268 156.129 38.256 156.185 38.232C156.241 38.208 156.299 38.158 156.359 38.082L158.075 36.12C158.135 36.04 158.201 35.98 158.273 35.94C158.345 35.9 158.437 35.88 158.549 35.88H159.719L157.655 38.208C157.535 38.364 157.403 38.488 157.259 38.58C157.339 38.636 157.409 38.7 157.469 38.772C157.529 38.84 157.587 38.918 157.643 39.006L159.845 42H158.693C158.589 42 158.499 41.984 158.423 41.952C158.351 41.916 158.287 41.852 158.231 41.76L156.461 39.36C156.401 39.268 156.341 39.21 156.281 39.186C156.221 39.158 156.131 39.144 156.011 39.144H155.693V42H154.403V33.12H155.693Z" fill="white"/>
</svg>
